<mxfile host="app.diagrams.net" agent="Mozilla/5.0 (Macintosh; Intel Mac OS X 10_15_7) AppleWebKit/537.36 (KHTML, like Gecko) Chrome/131.0.0.0 Safari/537.36" version="25.0.1">
  <diagram name="第 1 页" id="81aLjh4zl3zRgWzFOevn">
    <mxGraphModel dx="954" dy="605" grid="1" gridSize="10" guides="1" tooltips="1" connect="1" arrows="1" fold="1" page="1" pageScale="1" pageWidth="827" pageHeight="1169" math="0" shadow="0">
      <root>
        <mxCell id="0" />
        <mxCell id="1" parent="0" />
        <mxCell id="0_R8zArOMGvU4-N5Ipwe-1" value="" style="endArrow=none;dashed=1;html=1;rounded=0;" edge="1" parent="1">
          <mxGeometry width="50" height="50" relative="1" as="geometry">
            <mxPoint x="40" y="200" as="sourcePoint" />
            <mxPoint x="800" y="200" as="targetPoint" />
          </mxGeometry>
        </mxCell>
        <mxCell id="0_R8zArOMGvU4-N5Ipwe-2" value="Start" style="rounded=1;whiteSpace=wrap;html=1;" vertex="1" parent="1">
          <mxGeometry x="230" y="40" width="120" height="40" as="geometry" />
        </mxCell>
        <mxCell id="0_R8zArOMGvU4-N5Ipwe-3" value="Problem Definition &amp;amp; Lecture Review" style="rounded=1;whiteSpace=wrap;html=1;" vertex="1" parent="1">
          <mxGeometry x="180" y="140" width="220" height="40" as="geometry" />
        </mxCell>
        <mxCell id="0_R8zArOMGvU4-N5Ipwe-4" value="" style="endArrow=classic;html=1;rounded=0;exitX=0.5;exitY=1;exitDx=0;exitDy=0;" edge="1" parent="1" source="0_R8zArOMGvU4-N5Ipwe-2" target="0_R8zArOMGvU4-N5Ipwe-3">
          <mxGeometry width="50" height="50" relative="1" as="geometry">
            <mxPoint x="400" y="230" as="sourcePoint" />
            <mxPoint x="450" y="180" as="targetPoint" />
          </mxGeometry>
        </mxCell>
        <mxCell id="0_R8zArOMGvU4-N5Ipwe-5" value="Stage1.&amp;nbsp; Problem Fommluation" style="text;html=1;align=center;verticalAlign=middle;whiteSpace=wrap;rounded=0;" vertex="1" parent="1">
          <mxGeometry x="570" y="150" width="180" height="30" as="geometry" />
        </mxCell>
        <mxCell id="0_R8zArOMGvU4-N5Ipwe-6" value="get dataset from Xmap API and&amp;nbsp;&amp;nbsp;Malaysia&#39;s open data portal" style="rounded=1;whiteSpace=wrap;html=1;" vertex="1" parent="1">
          <mxGeometry x="180" y="240" width="220" height="60" as="geometry" />
        </mxCell>
        <mxCell id="0_R8zArOMGvU4-N5Ipwe-7" value="" style="endArrow=none;dashed=1;html=1;rounded=0;" edge="1" parent="1">
          <mxGeometry width="50" height="50" relative="1" as="geometry">
            <mxPoint x="40" y="320" as="sourcePoint" />
            <mxPoint x="800" y="320" as="targetPoint" />
            <Array as="points">
              <mxPoint x="410" y="320" />
            </Array>
          </mxGeometry>
        </mxCell>
        <mxCell id="0_R8zArOMGvU4-N5Ipwe-8" value="Stage2.&amp;nbsp; Data Collection" style="text;html=1;align=center;verticalAlign=middle;whiteSpace=wrap;rounded=0;" vertex="1" parent="1">
          <mxGeometry x="580" y="260" width="180" height="30" as="geometry" />
        </mxCell>
        <mxCell id="0_R8zArOMGvU4-N5Ipwe-9" value="" style="endArrow=classic;html=1;rounded=0;exitX=0.5;exitY=1;exitDx=0;exitDy=0;" edge="1" parent="1" source="0_R8zArOMGvU4-N5Ipwe-3" target="0_R8zArOMGvU4-N5Ipwe-6">
          <mxGeometry width="50" height="50" relative="1" as="geometry">
            <mxPoint x="410" y="360" as="sourcePoint" />
            <mxPoint x="460" y="310" as="targetPoint" />
          </mxGeometry>
        </mxCell>
        <mxCell id="0_R8zArOMGvU4-N5Ipwe-10" value="Data Cleaning" style="rounded=1;whiteSpace=wrap;html=1;" vertex="1" parent="1">
          <mxGeometry x="180" y="360" width="220" height="60" as="geometry" />
        </mxCell>
        <mxCell id="0_R8zArOMGvU4-N5Ipwe-11" value="Data Transformation" style="rounded=1;whiteSpace=wrap;html=1;" vertex="1" parent="1">
          <mxGeometry x="180" y="460" width="220" height="60" as="geometry" />
        </mxCell>
        <mxCell id="0_R8zArOMGvU4-N5Ipwe-12" value="" style="endArrow=none;dashed=1;html=1;rounded=0;" edge="1" parent="1">
          <mxGeometry width="50" height="50" relative="1" as="geometry">
            <mxPoint x="40" y="550" as="sourcePoint" />
            <mxPoint x="800" y="550" as="targetPoint" />
            <Array as="points">
              <mxPoint x="410" y="550" />
            </Array>
          </mxGeometry>
        </mxCell>
        <mxCell id="0_R8zArOMGvU4-N5Ipwe-13" value="Stage3.&amp;nbsp; Data Preprocessing" style="text;html=1;align=center;verticalAlign=middle;whiteSpace=wrap;rounded=0;" vertex="1" parent="1">
          <mxGeometry x="580" y="490" width="180" height="30" as="geometry" />
        </mxCell>
        <mxCell id="0_R8zArOMGvU4-N5Ipwe-14" value="" style="endArrow=classic;html=1;rounded=0;entryX=0.5;entryY=0;entryDx=0;entryDy=0;exitX=0.5;exitY=1;exitDx=0;exitDy=0;" edge="1" parent="1" source="0_R8zArOMGvU4-N5Ipwe-6" target="0_R8zArOMGvU4-N5Ipwe-10">
          <mxGeometry width="50" height="50" relative="1" as="geometry">
            <mxPoint x="290" y="310" as="sourcePoint" />
            <mxPoint x="460" y="540" as="targetPoint" />
          </mxGeometry>
        </mxCell>
        <mxCell id="0_R8zArOMGvU4-N5Ipwe-15" value="" style="endArrow=classic;html=1;rounded=0;exitX=0.5;exitY=1;exitDx=0;exitDy=0;entryX=0.5;entryY=0;entryDx=0;entryDy=0;" edge="1" parent="1" source="0_R8zArOMGvU4-N5Ipwe-10" target="0_R8zArOMGvU4-N5Ipwe-11">
          <mxGeometry width="50" height="50" relative="1" as="geometry">
            <mxPoint x="410" y="490" as="sourcePoint" />
            <mxPoint x="460" y="440" as="targetPoint" />
          </mxGeometry>
        </mxCell>
        <mxCell id="0_R8zArOMGvU4-N5Ipwe-16" value="Analysis the data using machine learning and statistical methods" style="rounded=1;whiteSpace=wrap;html=1;" vertex="1" parent="1">
          <mxGeometry x="180" y="585" width="220" height="60" as="geometry" />
        </mxCell>
        <mxCell id="0_R8zArOMGvU4-N5Ipwe-17" value="Stage4.&amp;nbsp; Data Analysis" style="text;html=1;align=center;verticalAlign=middle;whiteSpace=wrap;rounded=0;" vertex="1" parent="1">
          <mxGeometry x="580" y="615" width="180" height="30" as="geometry" />
        </mxCell>
        <mxCell id="0_R8zArOMGvU4-N5Ipwe-18" value="" style="endArrow=none;dashed=1;html=1;rounded=0;" edge="1" parent="1">
          <mxGeometry width="50" height="50" relative="1" as="geometry">
            <mxPoint x="40" y="670" as="sourcePoint" />
            <mxPoint x="800" y="670" as="targetPoint" />
            <Array as="points">
              <mxPoint x="410" y="670" />
            </Array>
          </mxGeometry>
        </mxCell>
        <mxCell id="0_R8zArOMGvU4-N5Ipwe-19" value="Summary" style="rounded=1;whiteSpace=wrap;html=1;" vertex="1" parent="1">
          <mxGeometry x="230" y="700" width="120" height="40" as="geometry" />
        </mxCell>
        <mxCell id="0_R8zArOMGvU4-N5Ipwe-20" value="Stage5.&amp;nbsp; Summary" style="text;html=1;align=center;verticalAlign=middle;whiteSpace=wrap;rounded=0;" vertex="1" parent="1">
          <mxGeometry x="580" y="705" width="180" height="30" as="geometry" />
        </mxCell>
        <mxCell id="0_R8zArOMGvU4-N5Ipwe-21" value="" style="endArrow=classic;html=1;rounded=0;exitX=0.5;exitY=1;exitDx=0;exitDy=0;entryX=0.5;entryY=0;entryDx=0;entryDy=0;" edge="1" parent="1" source="0_R8zArOMGvU4-N5Ipwe-11" target="0_R8zArOMGvU4-N5Ipwe-16">
          <mxGeometry width="50" height="50" relative="1" as="geometry">
            <mxPoint x="410" y="670" as="sourcePoint" />
            <mxPoint x="460" y="620" as="targetPoint" />
          </mxGeometry>
        </mxCell>
        <mxCell id="0_R8zArOMGvU4-N5Ipwe-22" value="" style="endArrow=classic;html=1;rounded=0;exitX=0.5;exitY=1;exitDx=0;exitDy=0;entryX=0.5;entryY=0;entryDx=0;entryDy=0;" edge="1" parent="1" source="0_R8zArOMGvU4-N5Ipwe-16" target="0_R8zArOMGvU4-N5Ipwe-19">
          <mxGeometry width="50" height="50" relative="1" as="geometry">
            <mxPoint x="410" y="730" as="sourcePoint" />
            <mxPoint x="460" y="680" as="targetPoint" />
          </mxGeometry>
        </mxCell>
      </root>
    </mxGraphModel>
  </diagram>
</mxfile>
